<svg id="pdf" xmlns="http://www.w3.org/2000/svg" width="15" height="15" viewBox="0 0 15 15">
  <path id="Path_524" data-name="Path 524" d="M10.75,2V5.124a1.875,1.875,0,0,0,1.694,1.866L12.625,7H15.75V8.355a1.877,1.877,0,0,1,1.241,1.582l.009.186v5a1.875,1.875,0,0,1-1.694,1.866L15.125,17H3.875a1.875,1.875,0,0,1-1.866-1.694L2,15.127v-5a1.875,1.875,0,0,1,1.086-1.7l.164-.067V3.877A1.875,1.875,0,0,1,4.944,2.011L5.125,2Zm4.375,7.5H3.875a.625.625,0,0,0-.625.625v5a.625.625,0,0,0,.625.625h11.25a.625.625,0,0,0,.625-.625v-5A.625.625,0,0,0,15.125,9.5ZM6.166,10.753a1.459,1.459,0,0,1,.159,2.908l-.159.009H5.75v.208a.625.625,0,0,1-1.24.112l-.01-.112v-2.5a.625.625,0,0,1,.513-.615l.112-.01Zm3.333,0a1.875,1.875,0,0,1,.181,3.741L9.5,14.5H8.873a.625.625,0,0,1-.615-.513l-.01-.112v-2.5a.625.625,0,0,1,.513-.615l.112-.01Zm4.374,0a.625.625,0,0,1,0,1.25H13.25v.418h.624a.625.625,0,1,1,0,1.25H13.25v.205a.625.625,0,0,1-1.25,0l0-.834,0-1.668a.625.625,0,0,1,.625-.624ZM9.5,12l0,1.25A.625.625,0,1,0,9.5,12ZM6.166,12H5.75v.417h.417a.208.208,0,0,0,.066-.406ZM12,2.371l3.382,3.378H12.625A.625.625,0,0,1,12,5.124Z" transform="translate(-2 -2.002)" fill="#5078e1"/>
</svg>
