<svg id="committed" xmlns="http://www.w3.org/2000/svg" width="33" height="34" viewBox="0 0 33 34">
  <rect id="Rectangle_302" data-name="Rectangle 302" width="33" height="34" rx="16.5" fill="#90b8ff"/>
  <path id="Path_519" data-name="Path 519" d="M10.564,11.025a1.223,1.223,0,0,0-.82,2.141v1.14a.82.82,0,0,0,1.641,0v-1.14a1.223,1.223,0,0,0-.82-2.141Zm4.1-3.282V6.1a4.1,4.1,0,1,0-8.2,0V7.743A2.461,2.461,0,0,0,4,10.2v5.743A2.461,2.461,0,0,0,6.461,18.41h8.2a2.461,2.461,0,0,0,2.461-2.461V10.2A2.461,2.461,0,0,0,14.666,7.743ZM8.1,6.1a2.461,2.461,0,0,1,4.923,0V7.743H8.1Zm7.384,9.846a.82.82,0,0,1-.82.82h-8.2a.82.82,0,0,1-.82-.82V10.2a.82.82,0,0,1,.82-.82h8.2a.82.82,0,0,1,.82.82Z" transform="translate(6.299 5.992)" fill="#fff"/>
</svg>
