<svg id="deposit" xmlns="http://www.w3.org/2000/svg" width="25" height="24" viewBox="0 0 25 24">
  <path id="Path_527" data-name="Path 527" d="M160.428,68.039H136.962a.756.756,0,0,0-.767.743v13.1a.755.755,0,0,0,.767.743h23.465a.755.755,0,0,0,.767-.743v-13.1a.756.756,0,0,0-.767-.743Zm-.767,13.1H137.73V69.525h21.931ZM148.7,79.643a4.525,4.525,0,0,0,3.147-1.262,4.214,4.214,0,0,0,0-6.095,4.554,4.554,0,0,0-6.294,0,4.21,4.21,0,0,0,0,6.093A4.531,4.531,0,0,0,148.7,79.643Zm0-7.133a2.964,2.964,0,0,1,2.062.827,2.761,2.761,0,0,1,0,3.993,2.983,2.983,0,0,1-4.124,0,2.762,2.762,0,0,1,0-3.994,2.969,2.969,0,0,1,2.062-.83Zm-10.33-1.479a.756.756,0,0,1,.767-.743h2.523a.743.743,0,1,1,0,1.486h-2.523A.755.755,0,0,1,138.365,71.03Zm16.6,8.6a.755.755,0,0,1,.767-.743h2.523a.743.743,0,1,1,0,1.486h-2.523A.755.755,0,0,1,154.968,79.63Zm-2.99,8.487a.726.726,0,0,1,0,1.051l-2.739,2.652a.768.768,0,0,1-.252.162l-.011,0a.768.768,0,0,1-.563,0l-.011,0h0a.767.767,0,0,1-.252-.162l-2.739-2.652a.727.727,0,0,1-.009-1.06.785.785,0,0,1,1.094.009l1.432,1.387V84.67a.768.768,0,0,1,1.535,0V89.5l1.432-1.387a.785.785,0,0,1,1.082,0Z" transform="translate(-136.195 -68.039)" fill="#5078e1"/>
</svg>
