<svg id="withdraw" xmlns="http://www.w3.org/2000/svg" width="29" height="22" viewBox="0 0 29 22">
  <path id="Path_528" data-name="Path 528" d="M106.352,99.156a6.12,6.12,0,0,1-6.3,0v2.331a4.965,4.965,0,0,0,6.3,0Zm7.468-8.45a.727.727,0,1,0-1.455,0v5.731l-2.037-1.554a.728.728,0,0,0-.873,1.166l3.1,2.428a.76.76,0,0,0,1.067,0l3.2-2.428c.776-.583-.194-1.748-.97-1.166l-2.037,1.554V90.706Zm2.425,11.461a5.093,5.093,0,0,0-6.3,0v.777a5.093,5.093,0,0,0,6.3,0Zm0,5.828a6.348,6.348,0,0,1-6.3,0v1.36a4.965,4.965,0,0,0,6.3,0Zm-6.3-1.748a5.093,5.093,0,0,0,6.3,0v-1.554a6.348,6.348,0,0,1-6.3,0Zm7.76-4.759v8.548c-3.2,2.623-5.916,2.525-9.214.1v-8.645c3.3-2.525,6.014-2.525,9.214,0Zm8.438-2.331a6.12,6.12,0,0,1-6.3,0v2.331a4.965,4.965,0,0,0,6.3,0Zm-6.3-1.748a4.965,4.965,0,0,0,6.3,0v-.68a4.965,4.965,0,0,0-6.3,0Zm0,5.828v2.331a4.965,4.965,0,0,0,6.3,0v-2.331A6.12,6.12,0,0,1,119.833,103.236Zm0,4.079v2.04a4.965,4.965,0,0,0,6.3,0v-2.04A6.348,6.348,0,0,1,119.833,107.316Zm7.76-11.364v14.084c-3.3,2.623-5.916,2.525-9.214.1V95.951c3.2-2.428,6.014-2.525,9.214,0Zm-27.545,1.457a4.965,4.965,0,0,0,6.3,0v-.68a4.965,4.965,0,0,0-6.3,0Zm0,5.828v2.331a4.965,4.965,0,0,0,6.3,0v-2.331A6.12,6.12,0,0,1,100.048,103.236Zm0,4.079v2.04a4.965,4.965,0,0,0,6.3,0v-2.04A6.348,6.348,0,0,1,100.048,107.315Zm7.76-11.364v14.084c-3.2,2.623-5.916,2.525-9.214.1V95.951c3.3-2.428,6.014-2.525,9.214,0Z" transform="translate(-98.594 -89.978)" fill="#5078e1"/>
</svg>
