<svg id="time" xmlns="http://www.w3.org/2000/svg" width="23" height="28" viewBox="0 0 23 28">
  <g id="_Group_" data-name="&lt;Group&gt;">
    <path id="_Compound_Path_" data-name="&lt;Compound Path&gt;" d="M75.311,20.849a1.161,1.161,0,0,0,0-1.624l-.861-.872a1.125,1.125,0,0,0-1.6,0l-1.054,1.073a11.376,11.376,0,0,0-5.688-2.594V15.558h.6a1.179,1.179,0,0,0,1.156-1.171V13.154A1.168,1.168,0,0,0,66.706,12h-4.6a1.168,1.168,0,0,0-1.156,1.154v1.234a1.183,1.183,0,0,0,1.156,1.171h.6v1.274a11.593,11.593,0,1,0,11.381,5.257Zm-1.666-1.681.861.872-1.082,1.1c-.255-.321-.521-.631-.81-.93ZM62.083,14.41V13.148h4.645V14.41Zm1.756,1.148h1.133v1.165c-.227-.011-.385-.011-.567-.011s-.34.006-.566.011Zm.566,23.294a10.5,10.5,0,1,1,10.361-10.5A10.441,10.441,0,0,1,64.406,38.852Z" transform="translate(-52.9 -12)" fill="#5078e1"/>
    <path id="_Compound_Path_2" data-name="&lt;Compound Path&gt;" d="M101.243,134h-.107a9.314,9.314,0,0,0-9.075,9.218.588.588,0,0,0-.062.26.555.555,0,0,0,.068.272,9.309,9.309,0,0,0,9.041,9.091.364.364,0,0,0,.079.006.268.268,0,0,0,.068-.006,9.423,9.423,0,0,0-.011-18.84Zm.507,17.672V150.6a.564.564,0,1,0-1.127,0v1.07a8.171,8.171,0,0,1-7.412-7.6H94.2a.578.578,0,0,0,0-1.157h-1a8.181,8.181,0,0,1,7.423-7.726v1.076a.564.564,0,1,0,1.127,0v-1.081a8.179,8.179,0,0,1,7.536,7.732h-1.11a.578.578,0,0,0,0,1.157h1.1A8.168,8.168,0,0,1,101.751,151.672Z" transform="translate(-89.738 -127.159)" fill="#5078e1"/>
    <path id="_Path_" data-name="&lt;Path&gt;" d="M249.867,217.3h-2.712v-3.822a.578.578,0,1,0-1.157,0v4.407a.56.56,0,0,0,.561.572h3.3a.578.578,0,0,0,.006-1.157Z" transform="translate(-235.112 -201.392)" fill="#5078e1"/>
  </g>
</svg>
