<svg xmlns="http://www.w3.org/2000/svg" width="36.642" height="45.427" viewBox="0 0 36.642 45.427">
  <path id="Path_497" data-name="Path 497" d="M4,23.964a2.2,2.2,0,0,0,2.2,2.2h16.67l-5.052,5.03a2.205,2.205,0,1,0,3.119,3.119l8.785-8.785a2.271,2.271,0,0,0,0-3.119l-8.785-8.785a2.205,2.205,0,0,0-3.119,3.119l5.052,5.03H6.2A2.2,2.2,0,0,0,4,23.964ZM32.553,2H10.589A6.589,6.589,0,0,0,4,8.589v6.589a2.2,2.2,0,0,0,4.393,0V8.589a2.2,2.2,0,0,1,2.2-2.2H32.553a2.2,2.2,0,0,1,2.2,2.2V39.338a2.2,2.2,0,0,1-2.2,2.2H10.589a2.2,2.2,0,0,1-2.2-2.2V32.749a2.2,2.2,0,0,0-4.393,0v6.589a6.589,6.589,0,0,0,6.589,6.589H32.553a6.589,6.589,0,0,0,6.589-6.589V8.589A6.589,6.589,0,0,0,32.553,2Z" transform="translate(-3.25 -1.25)" fill="#5078e1" stroke="#fff" stroke-width="1.5"/>
</svg>
