<svg xmlns="http://www.w3.org/2000/svg" width="11.701" height="15.258" viewBox="0 0 11.701 15.258">
  <path id="Path_387" data-name="Path 387" d="M17.366,8.772l-.246,7.438a2.45,2.45,0,0,1-2.458,2.37H9.994a2.45,2.45,0,0,1-2.458-2.367L7.29,8.772a.615.615,0,0,1,1.229-.041l.246,7.44a1.229,1.229,0,0,0,1.229,1.181h4.669a1.229,1.229,0,0,0,1.229-1.184l.246-7.438a.615.615,0,0,1,1.229.041ZM18.179,6.3a.614.614,0,0,1-.614.614H7.092a.614.614,0,0,1,0-1.229H9a.784.784,0,0,0,.782-.705,1.838,1.838,0,0,1,1.833-1.655h1.432a1.838,1.838,0,0,1,1.833,1.655.784.784,0,0,0,.782.705h1.9a.614.614,0,0,1,.614.614Zm-7.333-.614h2.966a2.027,2.027,0,0,1-.157-.58.614.614,0,0,0-.611-.553H11.613A.614.614,0,0,0,11,5.1a2.028,2.028,0,0,1-.157.58Zm.619,9.309V9.76a.614.614,0,0,0-1.229,0v5.234a.614.614,0,1,0,1.229,0Zm2.958,0V9.76a.614.614,0,0,0-1.229,0v5.234a.614.614,0,1,0,1.229,0Z" transform="translate(-6.478 -3.322)" fill="#5078e1"/>
</svg>
