<svg id="图层_1" data-name="图层 1" xmlns="http://www.w3.org/2000/svg" viewBox="0 0 26.5 4.5"><defs><style>.cls-1{fill:none;}.cls-2{fill:#2f6bb4;}</style></defs><title>MEERA Logo</title><g id="Layer_1-2" data-name="Layer 1-2"><rect class="cls-1" width="26.5" height="4.5"/><path class="cls-2" d="M16.78,11.64v2.14h.45V11.64a1.11,1.11,0,0,1,1-1.09h.22V10.1h-.09A1.56,1.56,0,0,0,16.78,11.64Z" transform="translate(1.54 -9.68)"/><path class="cls-2" d="M14.78,13.33a1.25,1.25,0,0,1-1.09-.65h-.48a1.67,1.67,0,0,0,3.14,0h-.47A1.25,1.25,0,0,1,14.78,13.33Z" transform="translate(1.54 -9.68)"/><path class="cls-2" d="M22.1,10.1v.63a1.84,1.84,0,1,0-.19,2.6l.19-.19v.64h.45V10.1Zm-1.39,3.23a1.4,1.4,0,1,1,1.39-1.39,1.4,1.4,0,0,1-1.39,1.39Z" transform="translate(1.54 -9.68)"/><path class="cls-2" d="M8.84,11.15h0a1.38,1.38,0,0,1,2.52.67H9l-.3.45h2.75a.4.4,0,0,0,.39-.39h0a1.83,1.83,0,0,0-3.36-1h0L7.13,13v-2h0v-.14a.69.69,0,0,0-1.19-.46l-.06.09,0,0-.19.3L4.32,12.81v-2a.69.69,0,0,0-.69-.68.68.68,0,0,0-.5.22l-.07.09,0,0-.19.3-2,3H1.4l2-3.11a.23.23,0,0,1,.2-.13.24.24,0,0,1,.24.24h0v3h.35l2-3.11a.23.23,0,0,1,.44.11h0v3h.45Z" transform="translate(1.54 -9.68)"/><path class="cls-2" d="M13.21,12.27H16a.4.4,0,0,0,.39-.39h0a1.83,1.83,0,0,0-3.36-1h0l-1.06,1.65a1.67,1.67,0,0,1-2.3.5,2,2,0,0,1-.42-.39H8.67a2.11,2.11,0,0,0,2.87.84,2.14,2.14,0,0,0,.71-.63c0-.05.84-1.3,1.13-1.73a1.36,1.36,0,0,1,1.14-.61,1.39,1.39,0,0,1,1.38,1.27H13.5Z" transform="translate(1.54 -9.68)"/></g></svg>