<svg xmlns="http://www.w3.org/2000/svg" viewBox="0 0 155.23 89.01"><g id="Layer_2" data-name="Layer 2"><g id="Layer_1-2" data-name="Layer 1"><path d="M83.35,78.26H80V88.45h-2.1V78.26H74.54V76.38h8.81Z" fill="#fff"/><path d="M96.27,88.45H94.05l-1-2.67H88.62l-1,2.67h-2.2L90,76.38h1.7ZM92.47,84l-.8-2.45-.8-2.48h-.05L90,81.5,89.23,84Z" fill="#fff"/><path d="M107.31,78.26H104V88.45h-2.1V78.26H98.5V76.38h8.81Z" fill="#fff"/><path d="M117.51,80.25a.07.07,0,0,0-.06,0l-1.16,4.4-.52,1.88-.54,1.92h-1.75L110.34,76.4h2.24l1.35,5.9.49,2.2h.07l.55-2.18,1.65-5.92h1.6c.69,2.41,1.24,4.39,1.66,6l.57,2.15h.07l.25-1.22.19-.92c.62-2.82,1.07-4.82,1.37-6h2.22l-3.14,12.07h-1.74l-1.21-4.35Z" fill="#fff"/><path d="M131,88.45h-2.12V76.38H131Z" fill="#fff"/><path d="M145.11,88.45h-2.36l-2.1-5h-2.24v5h-2.09V76.38h5.13a3.8,3.8,0,0,1,2.64,1,3.14,3.14,0,0,1,1,2.51,3.42,3.42,0,0,1-2.41,3.31Zm-4-10.21h-2.71V81.6h2.64A1.72,1.72,0,0,0,143,79.85C143,78.76,142.28,78.24,141.12,78.24Z" fill="#fff"/><rect x="114.91" y="25.94" width="7.26" height="7.26" transform="translate(88.96 148.11) rotate(-90)" fill="#fff"/><rect x="105.49" y="25.94" width="7.26" height="7.26" transform="translate(79.54 138.69) rotate(-90)" fill="#fff"/><path d="M152,10.51h-6.94V3.2a3.21,3.21,0,0,0-3.2-3.2H79.23A3.2,3.2,0,0,0,76,3.2V14.84h4V4.05H141V61.46h-5.77v4.06h6.62a3.21,3.21,0,0,0,3.2-3.21V14.56h6.11V89h4V13.74A3.23,3.23,0,0,0,152,10.51Z" fill="#fff"/><path d="M132.08,14.87H91a3.18,3.18,0,0,0-3.18,3.18V34.39h4.67V19.55h38.1V72.9h4.67V18.05A3.18,3.18,0,0,0,132.08,14.87Z" fill="#fff"/><path d="M26.92,58.08c0,4.71-.91,6.89-4.78,7H13.22V45.49H6v9.19H6v19c0,4.72-.91,6.89-4.79,7H0v7.87H1.18q12,0,12-14.28V73s0-.06,0-.09h8.92c8,0,12-4.78,12-14.28V39.06H26.92Z" fill="#fff"/><path d="M114.92,39.05v19c0,4.72-.91,6.89-4.79,7H106V53.85c0-9.82-4.22-14.8-12.54-14.8h-11V18.37H74.19V65.05h-6.3V40.32c0-.44,0-.86,0-1.26H52.45q-6,0-9,3.57t-3,10.7V72.92H60.21a8,8,0,0,1-2.1,5.21c-1.33,1.62-3.51,2.47-6.54,2.47H35.14v7.94H51.79c10.05,0,15.89-5.7,16.17-15.62h42.17c8,0,12-4.78,12-14.28V39.05ZM47.67,53.9c0-4.71.92-6.9,4.78-7h8.19V65.05h-13Zm50.1,11.15H82.52V48h11c3.28.06,4.28,1.57,4.28,6.46Z" fill="#fff"/><rect x="24.47" y="80.59" width="7.95" height="7.95" fill="#fff"/><rect x="14.12" y="80.59" width="7.95" height="7.95" fill="#fff"/></g></g></svg>