<svg xmlns="http://www.w3.org/2000/svg" viewBox="0 0 209.68 120.23"><g id="Layer_2" data-name="Layer 2"><g id="Layer_1-2" data-name="Layer 1"><path d="M112.59,105.71h-4.54v13.77h-2.84V105.71h-4.52v-2.53h11.9Z" fill="#afd197"/><path d="M130,119.48h-3l-1.29-3.6h-6l-1.32,3.6h-3l6.16-16.3h2.3Zm-5.13-6-1.08-3.3-1.08-3.35h-.07l-1.05,3.28-1.1,3.37Z" fill="#afd197"/><path d="M145,105.71h-4.54v13.77h-2.83V105.71h-4.53v-2.53H145Z" fill="#afd197"/><path d="M158.72,108.4a.08.08,0,0,0-.07,0l-1.57,5.95-.7,2.53-.72,2.6h-2.37l-4.24-16.31h3l1.83,8,.65,3h.1l.75-3,2.22-8h2.16c.94,3.26,1.68,5.93,2.25,8.06l.77,2.91h.09l.33-1.64.26-1.25c.84-3.81,1.45-6.51,1.85-8.08h3l-4.24,16.31h-2.34l-1.64-5.88Z" fill="#afd197"/><path d="M176.92,119.48h-2.86v-16.3h2.86Z" fill="#afd197"/><path d="M196,119.48h-3.19L190,112.76h-3v6.72h-2.84v-16.3h6.94a5.07,5.07,0,0,1,3.56,1.29,4.26,4.26,0,0,1,1.43,3.39,4.66,4.66,0,0,1-3.26,4.48Zm-5.39-13.8H187v4.55h3.56a2.33,2.33,0,0,0,2.62-2.37C193.15,106.39,192.19,105.68,190.62,105.68Z" fill="#afd197"/><rect x="155.21" y="35.04" width="9.8" height="9.8" transform="translate(120.17 200.06) rotate(-90)" fill="#08616a"/><rect x="142.49" y="35.04" width="9.8" height="9.8" transform="translate(107.44 187.33) rotate(-90)" fill="#08616a"/><path d="M205.33,14.2H196V4.32A4.32,4.32,0,0,0,191.64,0H107a4.33,4.33,0,0,0-4.32,4.32V20.05h5.47V5.47h82.32V83H182.7V88.5h8.94A4.32,4.32,0,0,0,196,84.17V19.67h8.26V120.23h5.47V18.56A4.36,4.36,0,0,0,205.33,14.2Z" fill="#08616a"/><path d="M178.41,20.09h-55.5a4.3,4.3,0,0,0-4.3,4.29V46.45h6.31v-20h51.46V98.48h6.32V24.38A4.29,4.29,0,0,0,178.41,20.09Z" fill="#afd197"/><path d="M36.37,78.45c0,6.37-1.24,9.32-6.46,9.41H17.85V61.44H8.07V73.86h0V99.55c0,6.37-1.22,9.31-6.46,9.42H0V119.6H1.6c10.84,0,16.25-6.45,16.25-19.29V98.5H29.91c10.83,0,16.25-6.46,16.25-19.29V52.76H36.37Z" fill="#08616a"/><path d="M155.23,52.75v25.7c0,6.37-1.23,9.31-6.46,9.42h-5.53V72.74c0-13.26-5.7-20-16.94-20H111.46V24.82H100.22V87.87H91.7V54.46c0-.59,0-1.16.07-1.7H70.85q-8.11,0-12.18,4.83T54.61,72V98.5H81.33a10.71,10.71,0,0,1-2.84,7c-1.8,2.2-4.74,3.34-8.83,3.34H47.47V119.6H70c13.59,0,21.47-7.7,21.85-21.1h57C159.6,98.5,165,92.05,165,79.21V52.75ZM64.4,72.81c0-6.37,1.23-9.32,6.45-9.41H81.91V87.87H64.4Zm67.67,15.06H111.46V64.79h14.83c4.43.07,5.78,2.12,5.78,8.71Z" fill="#08616a"/><rect x="33.06" y="108.86" width="10.74" height="10.74" fill="#08616a"/><rect x="19.07" y="108.86" width="10.74" height="10.74" fill="#08616a"/></g></g></svg>