<svg xmlns="http://www.w3.org/2000/svg" width="19.285" height="21.213" viewBox="0 0 19.285 21.213">
  <path id="Path_268" data-name="Path 268" d="M11.642,18.356a.964.964,0,1,0-.964-.964A.964.964,0,0,0,11.642,18.356Zm4.821,0a.964.964,0,1,0-.964-.964A.964.964,0,0,0,16.464,18.356Zm0-3.857a.964.964,0,1,0-.964-.964A.964.964,0,0,0,16.464,14.5Zm-4.821,0a.964.964,0,1,0-.964-.964A.964.964,0,0,0,11.642,14.5Zm6.75-11.571h-.964V1.964a.964.964,0,0,0-1.928,0v.964H7.785V1.964a.964.964,0,0,0-1.928,0v.964H4.893A2.893,2.893,0,0,0,2,5.821v13.5a2.893,2.893,0,0,0,2.893,2.893h13.5a2.893,2.893,0,0,0,2.893-2.893V5.821A2.893,2.893,0,0,0,18.392,2.928Zm.964,16.392a.964.964,0,0,1-.964.964H4.893a.964.964,0,0,1-.964-.964V10.642H19.356Zm0-10.607H3.928V5.821a.964.964,0,0,1,.964-.964h.964v.964a.964.964,0,0,0,1.928,0V4.857H15.5v.964a.964.964,0,0,0,1.928,0V4.857h.964a.964.964,0,0,1,.964.964ZM6.821,14.5a.964.964,0,1,0-.964-.964A.964.964,0,0,0,6.821,14.5Zm0,3.857a.964.964,0,1,0-.964-.964A.964.964,0,0,0,6.821,18.356Z" transform="translate(-2 -1)" fill="#5078e1"/>
</svg>
