<svg xmlns="http://www.w3.org/2000/svg" width="25.5" height="31.568" viewBox="0 0 25.5 31.568">
  <g id="location_icon" transform="translate(0.25 0.25)">
    <path id="Path_172" data-name="Path 172" d="M16.5,2A12.45,12.45,0,0,0,4,14.4c0,8.37,11.016,17.825,11.484,18.228a1.572,1.572,0,0,0,2.031,0C18.063,32.225,29,22.77,29,14.4A12.45,12.45,0,0,0,16.5,2Zm0,27.357c-3.328-3.1-9.375-9.78-9.375-14.957a9.375,9.375,0,0,1,18.75,0C25.875,19.577,19.828,26.273,16.5,29.357ZM16.5,8.2a6.2,6.2,0,1,0,6.25,6.2A6.225,6.225,0,0,0,16.5,8.2Zm0,9.3a3.1,3.1,0,1,1,3.125-3.1A3.113,3.113,0,0,1,16.5,17.5Z" transform="translate(-4 -2)" fill="#5078e1" stroke="#fff" stroke-width="0.5"/>
  </g>
</svg>
