<svg id="Group_1460" data-name="Group 1460" xmlns="http://www.w3.org/2000/svg" xmlns:xlink="http://www.w3.org/1999/xlink" width="23.938" height="23.938" viewBox="0 0 23.938 23.938">
  <defs>
    <clipPath id="clip-path">
      <rect id="Rectangle_109" data-name="Rectangle 109" width="23.938" height="23.938" fill="#5078e1" stroke="#fff" stroke-width="0.2"/>
    </clipPath>
  </defs>
  <g id="Group_582" data-name="Group 582" clip-path="url(#clip-path)">
    <path id="Path_147" data-name="Path 147" d="M20.206,3.283a11.971,11.971,0,1,0,.448,16.924A11.977,11.977,0,0,0,20.206,3.283Zm-1.1,1.158A10.375,10.375,0,1,1,4.441,4.83a10.38,10.38,0,0,1,14.668-.389m-7.169,6.4L7.885,7a.8.8,0,0,0-1.1,1.159L10.84,12,7,16.053a.8.8,0,0,0,1.159,1.1L12,13.1l4.054,3.844a.8.8,0,0,0,1.1-1.159L13.1,11.94l3.844-4.054a.8.8,0,0,0-1.159-1.1Z" transform="translate(0 -0.001)" fill="#5078e1" stroke="#fff" stroke-width="0.2" fill-rule="evenodd"/>
  </g>
</svg>
