<svg id="auction_lost" xmlns="http://www.w3.org/2000/svg" xmlns:xlink="http://www.w3.org/1999/xlink" width="38" height="38" viewBox="0 0 38 38">
  <defs>
    <clipPath id="clip-path">
      <rect id="Rectangle_109" data-name="Rectangle 109" width="38" height="38" fill="#5078e1" stroke="#fff" stroke-width="0.5"/>
    </clipPath>
  </defs>
  <g id="Group_582" data-name="Group 582" clip-path="url(#clip-path)">
    <path id="Path_147" data-name="Path 147" d="M32.077,5.212a19,19,0,1,0,.712,26.866A19.013,19.013,0,0,0,32.077,5.212ZM30.333,7.05a16.47,16.47,0,1,1-23.284.617A16.478,16.478,0,0,1,30.333,7.05M18.953,17.209l-6.436-6.1a1.267,1.267,0,0,0-1.743,1.84l6.435,6.1-6.1,6.436a1.267,1.267,0,0,0,1.84,1.743l6.1-6.435,6.436,6.1a1.267,1.267,0,0,0,1.743-1.84l-6.435-6.1,6.1-6.436a1.267,1.267,0,0,0-1.84-1.743Z" transform="translate(0 -0.001)" fill="#5078e1" stroke="#fff" stroke-width="0.5" fill-rule="evenodd"/>
  </g>
</svg>
