<svg id="auction_won" xmlns="http://www.w3.org/2000/svg" xmlns:xlink="http://www.w3.org/1999/xlink" width="42" height="43" viewBox="0 0 42 43">
  <defs>
    <clipPath id="clip-path">
      <rect id="Rectangle_104" data-name="Rectangle 104" width="42" height="43" fill="#5078e1"/>
    </clipPath>
  </defs>
  <g id="Group_569" data-name="Group 569" clip-path="url(#clip-path)">
    <path id="Path_142" data-name="Path 142" d="M133.369,72.8a12.341,12.341,0,1,0-12.342,12.449A12.411,12.411,0,0,0,133.369,72.8M121.027,83.539A10.735,10.735,0,1,1,131.668,72.8a10.7,10.7,0,0,1-10.641,10.734" transform="translate(-100.301 -55.656)" fill="#5078e1"/>
    <path id="Path_143" data-name="Path 143" d="M199.426,139.657l-3.227-.63-1.592-2.9a.849.849,0,0,0-.744-.442h0a.849.849,0,0,0-.744.443l-1.59,2.9-3.227.63a.853.853,0,0,0-.647.577.863.863,0,0,0,.188.851l2.245,2.422-.405,3.291a.861.861,0,0,0,.344.8.845.845,0,0,0,.86.083l2.977-1.4,2.977,1.4a.844.844,0,0,0,.86-.083.861.861,0,0,0,.344-.8l-.4-3.291,2.245-2.422a.864.864,0,0,0,.188-.851.855.855,0,0,0-.648-.577Zm-3.3,2.971a.863.863,0,0,0-.223.691l.263,2.15-1.944-.917a.846.846,0,0,0-.72,0l-1.944.917.265-2.149a.863.863,0,0,0-.223-.692l-1.466-1.582,2.108-.412a.851.851,0,0,0,.583-.427l1.038-1.9,1.04,1.9a.851.851,0,0,0,.582.427l2.108.412Z" transform="translate(-173.136 -125.119)" fill="#5078e1"/>
    <path id="Path_144" data-name="Path 144" d="M34.806,25.932l1.145-1.114A3.855,3.855,0,0,0,37.151,22l-.168-2.966.707-2.152a3.872,3.872,0,0,0-.234-3.057l-1.514-2.548-.367-2.237a3.847,3.847,0,0,0-1.615-2.6L31.447,4.9,30.091,3.091a3.781,3.781,0,0,0-2.627-1.543L24.527,1.36,22.493.394A3.734,3.734,0,0,0,20.808,0a3.427,3.427,0,0,0-1.349.256l-2.69,1.21-2.246.1a3.8,3.8,0,0,0-2.75,1.306L9.951,5.2,8.007,6.34A3.817,3.817,0,0,0,6.173,8.785L5.633,11.7l-1.2,1.921a3.859,3.859,0,0,0-.5,3.023L4.8,19.486l-.176,2.261a3.857,3.857,0,0,0,.951,2.912L7.2,26.308.217,34.169a.863.863,0,0,0-.159.883.851.851,0,0,0,.708.543l6.133.617,2.4,6.24a.851.851,0,0,0,.676.539.844.844,0,0,0,.8-.334l6.341-8.509a3.741,3.741,0,0,0,.621.057,2.6,2.6,0,0,0,.462-.038l2.9-.526,2.2.449a3.566,3.566,0,0,0,.795.089,3.871,3.871,0,0,0,1.009-.136l6.13,8.225a.848.848,0,0,0,.679.342.8.8,0,0,0,.117-.008.852.852,0,0,0,.676-.539l2.4-6.238,6.133-.619a.852.852,0,0,0,.708-.543.864.864,0,0,0-.16-.883ZM10.33,40.394,8.3,35.1a.851.851,0,0,0-.708-.543l-4.986-.5L8.117,27.85l.426,1a3.8,3.8,0,0,0,2.184,2.132l2.807.893,1.746,1.432c.069.059.139.114.209.166Zm13.336-7.978-.024-.005-2.374-.484a.838.838,0,0,0-.319,0l-3.058.556a.946.946,0,0,1-.16.011A2.16,2.16,0,0,1,16.377,32l-.017-.014-1.88-1.542a.851.851,0,0,0-.281-.152l-2.962-.942a2.11,2.11,0,0,1-1.118-1.138l-.01-.024-.956-2.244-.005-.011c-.006-.014-.013-.028-.02-.042l-.016-.031c-.008-.013-.016-.027-.024-.04l-.021-.031-.026-.035-.027-.033-.026-.029-.014-.015L6.786,23.45a2.144,2.144,0,0,1-.466-1.534c0-.008,0-.015,0-.023l.189-2.435a.87.87,0,0,0-.035-.32l-.915-3a2.157,2.157,0,0,1,.294-1.577l.012-.018,1.29-2.068a.863.863,0,0,0,.116-.3l.57-3.08a2.122,2.122,0,0,1,.985-1.258l.022-.012L10.945,6.6a.858.858,0,0,0,.241-.211l1.92-2.457a2.122,2.122,0,0,1,1.457-.655h.022L17,3.175a.841.841,0,0,0,.31-.074l2.838-1.277a1.8,1.8,0,0,1,.658-.108,2.055,2.055,0,0,1,.927.213l.023.011,2.192,1.04a.844.844,0,0,0,.308.08l3.1.2a2.107,2.107,0,0,1,1.355.836l.014.02,1.46,1.949a.856.856,0,0,0,.236.216l2.649,1.627a2.143,2.143,0,0,1,.819,1.378l0,.025.4,2.41a.86.86,0,0,0,.11.3L36,14.708a2.154,2.154,0,0,1,.09,1.6c0,.007-.005.015-.007.022l-.762,2.318a.864.864,0,0,0-.042.319l.177,3.128a2.142,2.142,0,0,1-.658,1.461l-.017.016-1.743,1.7-.021.022-.026.028-.026.032-.026.034-.019.029c-.009.014-.018.027-.026.041l-.014.027c-.008.015-.016.03-.023.046l0,0L31.57,28.386a2.117,2.117,0,0,1-1.257.984l-.024.007-2.325.687a.845.845,0,0,0-.283.146l-2.449,1.923a1.108,1.108,0,0,1-.185.109l-.02.01a2.256,2.256,0,0,1-.937.212,1.89,1.89,0,0,1-.425-.048ZM34.41,34.171a.852.852,0,0,0-.708.543l-2.035,5.291-5.055-6.784L28.6,31.664l2.158-.637a3.815,3.815,0,0,0,2.363-1.93l.745-1.657L39.4,33.668Z" transform="translate(0 -0.001)" fill="#5078e1"/>
  </g>
</svg>
