<svg id="auctions_added" xmlns="http://www.w3.org/2000/svg" xmlns:xlink="http://www.w3.org/1999/xlink" width="39" height="39" viewBox="0 0 39 39">
  <defs>
    <clipPath id="clip-path">
      <rect id="Rectangle_112" data-name="Rectangle 112" width="39" height="39" transform="translate(0 0.326)" fill="#5078e1" stroke="#fff" stroke-width="1.2"/>
    </clipPath>
  </defs>
  <g id="Group_588" data-name="Group 588" transform="translate(0 -0.326)" clip-path="url(#clip-path)">
    <path id="Path_152" data-name="Path 152" d="M19.3,0A19.3,19.3,0,1,0,38.6,19.3,19.319,19.319,0,0,0,19.3,0m0,35.108A15.807,15.807,0,1,1,35.108,19.3,15.824,15.824,0,0,1,19.3,35.108Z" transform="translate(0 0.556)" fill="#5078e1" stroke="#fff" stroke-width="1.2"/>
    <path id="Path_153" data-name="Path 153" d="M151.545,142.394a1.734,1.734,0,0,0-1.747-1.747h-6.177V134.47a1.747,1.747,0,1,0-3.494,0v6.217H133.91a1.734,1.734,0,0,0-1.747,1.747,1.622,1.622,0,0,0,.528,1.219,1.689,1.689,0,0,0,1.219.528h6.217V150.4a1.622,1.622,0,0,0,.528,1.219,1.866,1.866,0,0,0,1.219.528,1.734,1.734,0,0,0,1.747-1.747v-6.217h6.217a1.789,1.789,0,0,0,1.706-1.788Z" transform="translate(-122.573 -122.536)" fill="#5078e1" stroke="#fff" stroke-width="1.2"/>
  </g>
</svg>
