<?xml version="1.0" encoding="UTF-8"?>
<svg width="108px" height="108px" viewBox="0 0 108 108" version="1.1" xmlns="http://www.w3.org/2000/svg" xmlns:xlink="http://www.w3.org/1999/xlink">
    <title>bid_place_successfully</title>
    <g id="Page-1" stroke="none" stroke-width="1" fill="none" fill-rule="evenodd">
        <g id="bid_place_successfully">
            <circle id="Oval" stroke="#5375EA" stroke-width="8" cx="54" cy="54" r="50"></circle>
            <g id="checkbox_enable" transform="translate(29.415940, 36.660940)" fill="#537BDD" fill-rule="nonzero" stroke="#4D78E4" stroke-width="4">
                <path d="M15.6345633,35.3500789 C15.1492708,35.3532942 14.6826638,35.1631384 14.3378835,34.8216036 L0.573129241,21.0568493 C0.0881637348,20.5991496 -0.108953353,19.9136059 0.0588366651,19.2682168 C0.226626684,18.6228276 0.732675144,18.1200948 1.37915328,17.9565509 C2.02563141,17.7930069 2.70986457,17.9946262 3.16436652,18.4825899 L15.6324411,30.9506644 L46.0120985,0.573129241 C46.4697982,0.0881637348 47.1553419,-0.108953353 47.8007311,0.0588366651 C48.4461202,0.226626684 48.948853,0.732675144 49.1123969,1.37915328 C49.2759409,2.02563141 49.0743217,2.70986457 48.586358,3.16436652 L16.912143,34.8216036 C16.5720588,35.1584717 16.1132429,35.3482478 15.6345633,35.3500789 Z" id="Path_133"></path>
            </g>
        </g>
    </g>
</svg>