<svg xmlns="http://www.w3.org/2000/svg" width="10.724" height="10.724" viewBox="0 0 10.724 10.724">
  <path id="Path_427" data-name="Path 427" d="M11.115,3.072H10.043V2.536a.536.536,0,0,0-1.072,0v.536H5.753V2.536a.536.536,0,1,0-1.072,0v.536H3.609A1.609,1.609,0,0,0,2,4.681v6.434a1.609,1.609,0,0,0,1.609,1.609h7.507a1.609,1.609,0,0,0,1.609-1.609V4.681a1.609,1.609,0,0,0-1.609-1.609Zm.536,8.043a.536.536,0,0,1-.536.536H3.609a.536.536,0,0,1-.536-.536V7.362h8.579Zm0-4.826H3.072V4.681a.536.536,0,0,1,.536-.536H4.681v.536a.536.536,0,0,0,1.072,0V4.145H8.97v.536a.536.536,0,0,0,1.072,0V4.145h1.072a.536.536,0,0,1,.536.536Z" transform="translate(-2 -2)" fill="#5078e1"/>
</svg>
