<svg id="company_disable" xmlns="http://www.w3.org/2000/svg" width="13" height="12.998" viewBox="0 0 13 12.998">
  <g id="Dribbble-Light-Preview">
    <g id="icons">
      <path id="profile-_1341_" data-name="profile-[#1341]" d="M130.5,2005.5a2.6,2.6,0,1,1,2.612-2.6,2.607,2.607,0,0,1-2.612,2.6m2.454.438a3.884,3.884,0,0,0,1.418-3.641,3.92,3.92,0,0,0-7.791.6,3.88,3.88,0,0,0,1.464,3.037,6.2,6.2,0,0,0-4.043,5.342.656.656,0,0,0,.653.721.642.642,0,0,0,.645-.578,5.235,5.235,0,0,1,10.4,0,.642.642,0,0,0,.646.578.657.657,0,0,0,.652-.721,6.2,6.2,0,0,0-4.043-5.342" transform="translate(-123.999 -1999)" fill="#3d3d3e" fill-rule="evenodd"/>
    </g>
  </g>
</svg>
