<svg id="company_enable" xmlns="http://www.w3.org/2000/svg" width="13" height="13" viewBox="0 0 13 13">
  <g id="Dribbble-Light-Preview">
    <g id="icons">
      <path id="profile-_1341_" data-name="profile-[#1341]" d="M130.5,2005.5a2.6,2.6,0,1,1,2.612-2.6,2.608,2.608,0,0,1-2.612,2.6m2.454.437a3.886,3.886,0,0,0,1.418-3.642,3.92,3.92,0,0,0-7.791.6,3.883,3.883,0,0,0,1.464,3.037,6.2,6.2,0,0,0-4.043,5.342.658.658,0,0,0,.653.721.644.644,0,0,0,.645-.579,5.235,5.235,0,0,1,10.4,0,.644.644,0,0,0,.645.579.657.657,0,0,0,.652-.721,6.2,6.2,0,0,0-4.043-5.342" transform="translate(-123.999 -1999)" fill="#5078e1" fill-rule="evenodd"/>
    </g>
  </g>
</svg>
