<?xml version="1.0" encoding="UTF-8"?>
<svg width="15px" height="15px" viewBox="0 0 15 15" version="1.1" xmlns="http://www.w3.org/2000/svg" xmlns:xlink="http://www.w3.org/1999/xlink">
    <title>Drone_icon</title>
    <g id="Page-1" stroke="none" stroke-width="1" fill="none" fill-rule="evenodd">
        <g id="5" transform="translate(-1312.000000, -450.000000)" fill="#DADBDD">
            <g id="Group-27" transform="translate(1259.000000, 242.333106)">
                <g id="Group-39" transform="translate(0.000000, 110.000000)">
                    <path d="M56.3127684,106.395815 C56.353383,106.40004 56.3954161,106.393101 56.4354755,106.399546 C56.4697373,106.405066 56.5146076,106.413516 56.5312913,106.437231 C56.543781,106.455025 56.5273131,106.50486 56.5094884,106.530518 C56.2548842,106.89719 55.9944515,107.259822 55.7434246,107.628899 C55.6688567,107.738531 55.5739969,107.805112 55.4575192,107.861176 C54.9696512,108.096106 54.6127243,108.445045 54.4666106,108.98759 C54.32833,109.501116 54.399814,109.985715 54.6963588,110.412954 C55.051127,110.924167 55.5636043,111.195486 56.1916341,111.185895 C56.677405,111.178494 57.0845681,110.970949 57.4167316,110.610106 C57.5645106,110.449621 57.6672959,110.267642 57.750252,110.070891 C57.7835577,109.991883 57.8355209,109.935355 57.9057098,109.886723 C58.289528,109.620801 58.6711567,109.351703 59.0531247,109.083098 C59.157051,109.010041 59.1706817,109.015962 59.1846208,109.139317 C59.2502147,109.721027 59.141755,110.275969 58.9027861,110.803187 C58.7615141,111.114873 58.5677238,111.401087 58.3197808,111.63873 C58.1861876,111.766742 58.017315,111.85824 57.8632141,111.964541 C57.4948152,112.218652 57.092247,112.390176 56.6493726,112.463418 C56.0299469,112.565864 55.4207595,112.510262 54.8594338,112.235736 C53.9704779,111.800942 53.3744278,111.106855 53.140208,110.126278 C53.0801343,109.874696 53.0520094,109.621911 53.063944,109.334186 C53.0240695,109.141999 53.1003644,108.936706 53.1560591,108.728299 C53.301371,108.184428 53.563654,107.705873 53.9563846,107.301146 C54.2087067,107.041145 54.4892771,106.807419 54.8220881,106.669662 C55.2951227,106.473837 55.7890967,106.341169 56.3127684,106.395815 Z M64.4070131,106.458775 C64.9392579,106.540251 65.4403557,106.70163 65.8638633,107.047424 C66.3752612,107.46498 66.7415939,107.98125 66.9313752,108.621307 C67.0503508,109.022518 67.0773038,109.426721 67.0308608,109.838756 C66.9617821,110.451737 66.7107244,110.986726 66.3141081,111.452421 C65.9228269,111.911825 65.4416509,112.234521 64.8526629,112.397226 C64.4442045,112.510065 64.0331866,112.518175 63.617111,112.486782 C63.1732807,112.453322 62.7660867,112.30397 62.3931854,112.068948 C62.1964654,111.944977 62.0067767,111.803828 61.8362079,111.646304 C61.7022138,111.522518 61.5965297,111.36598 61.4884092,111.216629 C61.099811,110.679881 60.905959,110.080007 60.9220877,109.415434 C60.9245547,109.313265 60.9343923,109.211251 60.942287,109.109236 C60.9470978,109.047066 61.0017131,109.02736 61.0628046,109.069763 L61.3043948,109.248072 L61.3043948,109.248072 C61.5955737,109.453982 61.8870917,109.659337 62.1795658,109.863366 C62.2748573,109.929823 62.3471432,110.012255 62.3899781,110.121393 C62.5880858,110.626592 62.9695912,110.932666 63.46705,111.114553 C63.9037258,111.274235 64.3308415,111.228872 64.7359693,111.027588 C65.2317011,110.781217 65.5668251,110.395981 65.6811133,109.837029 C65.7923176,109.293158 65.6696413,108.811797 65.3219351,108.383201 C65.1240433,108.139267 64.8859687,107.952817 64.58634,107.847965 C64.540853,107.832022 64.4933922,107.798346 64.4652982,107.759489 C64.1633875,107.341717 63.8652082,106.921263 63.5549094,106.486036 C63.590158,106.475644 63.6146439,106.46522 63.6402092,106.461365 C63.8956152,106.42257 64.1509903,106.419641 64.4070131,106.458775 Z M56.1433715,100.707879 C56.4054387,100.718148 56.6290808,100.796663 56.7936977,101.016605 C56.8973157,101.15504 56.9844658,101.295541 57.0023214,101.470488 C57.0097535,101.54336 57.0619942,101.580459 57.1141424,101.618391 C57.5350288,101.924434 57.9563161,102.229953 58.3766781,102.536674 C58.4948211,102.622868 58.6124399,102.710049 58.7265122,102.801517 C58.8092832,102.867882 58.9005349,102.89283 59.0047696,102.892213 C59.6362533,102.888328 60.2677679,102.886138 60.8992516,102.884565 L61.0753097,102.896068 L61.0753097,102.896068 C61.2470503,102.895976 61.3931948,102.825694 61.5280215,102.725685 C61.6863782,102.608282 61.8446423,102.490786 62.00414,102.375018 C62.3569345,102.118903 62.7113326,101.865008 63.062246,101.606394 C63.0944416,101.58268 63.1196368,101.533183 63.125342,101.492476 C63.1602205,101.242035 63.2873067,101.042447 63.477088,100.88884 C63.7592003,100.660541 64.2050043,100.66933 64.4964915,100.889488 C64.8864775,101.18409 64.9532124,101.609571 64.7836613,101.978186 C64.6682321,102.229182 64.460842,102.403883 64.1729629,102.442246 C64.0661685,102.456463 63.9961956,102.49976 63.936276,102.58617 C63.8428039,102.720905 63.7368731,102.84685 63.6397312,102.979086 C63.5200771,103.141945 63.4040928,103.307518 63.2863199,103.471765 C63.1069621,103.721897 62.9289304,103.973048 62.747013,104.22133 C62.6924902,104.295744 62.6680968,104.376202 62.669022,104.465356 C62.6713349,104.686038 62.6779652,104.906658 62.6790445,105.127339 C62.6808332,105.486734 62.6805248,105.846158 62.6788595,106.205552 C62.6784278,106.300104 62.6705022,106.394655 62.6646737,106.489145 C62.6549287,106.647748 62.7054733,106.787262 62.7984828,106.91293 L63.4082561,107.734596 L63.4082561,107.734596 C63.5927639,107.983495 63.7789987,108.231222 63.9596517,108.482927 C64.0055088,108.546887 64.0564235,108.579329 64.134322,108.589321 C64.4754904,108.63305 64.7033574,108.84189 64.7947633,109.115799 C64.8708115,109.343758 64.8699171,109.58871 64.7701848,109.810224 C64.6434378,110.09172 64.4303117,110.283814 64.1061046,110.314992 C63.8976968,110.335068 63.6918177,110.320697 63.5170241,110.191853 C63.3032503,110.034267 63.1567358,109.83138 63.1208704,109.557563 C63.1141784,109.506494 63.0743348,109.447068 63.0319316,109.415304 C62.6645504,109.140007 62.2929442,108.870416 61.9229417,108.598634 C61.7409626,108.464949 61.5577192,108.332866 61.3789473,108.194956 C61.2797701,108.118476 61.1731916,108.100343 61.0531366,108.116441 C60.9644754,108.128313 60.874519,108.136547 60.7851793,108.136332 C60.3103869,108.13519 59.8355637,108.130996 59.3607714,108.127481 C59.2738063,108.126833 59.1867178,108.127296 59.0999686,108.1223 C58.9125003,108.111445 58.7560248,108.178889 58.6122548,108.295058 C58.4827941,108.399663 58.3455619,108.494646 58.2111978,108.593083 C58.0560792,108.706755 57.9008064,108.820179 57.7447935,108.932525 C57.5347204,109.08385 57.3248015,109.235391 57.1127239,109.38388 C57.0587562,109.421688 57.0236617,109.462672 57.0175557,109.531504 C56.9924222,109.815806 56.8379204,110.033034 56.6136306,110.183743 C56.4068572,110.322702 56.1586675,110.346787 55.9170464,110.276135 C55.441884,110.137145 55.1675431,109.653317 55.321644,109.165943 C55.4292401,108.825669 55.6707995,108.633081 56.0246734,108.586114 C56.0940913,108.576893 56.1422613,108.546949 56.1818582,108.490699 C56.2954988,108.329258 56.4252371,108.177594 56.5248769,108.008104 C56.780252,107.573495 57.119015,107.198651 57.3887918,106.775297 C57.4289129,106.712324 57.4522269,106.627117 57.4524428,106.552118 C57.4540156,105.956623 57.4473236,105.361158 57.4454116,104.765663 C57.4451649,104.684126 57.4561434,104.602403 57.4640381,104.520989 C57.4811228,104.345116 57.4052905,104.20258 57.3052806,104.067846 C57.0729728,103.754926 56.8396165,103.442776 56.6097141,103.128098 C56.4584812,102.921078 56.3139711,102.709155 56.162584,102.502289 C56.1409661,102.472746 56.0997965,102.451529 56.0634068,102.440242 C56.0001567,102.420628 55.9308313,102.419456 55.8689072,102.397129 C55.412063,102.232543 55.1932625,101.811225 55.3020922,101.334922 C55.3695981,101.039487 55.6755179,100.742171 56.0533534,100.715588 C56.0840687,100.71343 56.1146916,100.710377 56.1433715,100.707879 Z M65.1310128,98.7980174 C65.5056412,98.9421882 65.8439415,99.1574422 66.1111896,99.449022 C66.5384287,99.9151487 66.8603537,100.446869 66.9620288,101.090596 C67.0947585,101.930858 66.9476888,102.711107 66.4483797,103.402665 C65.9378762,104.109765 65.2494334,104.550419 64.3748483,104.671892 C64.0999831,104.710071 63.8231443,104.715066 63.525366,104.668963 C63.5470764,104.62622 63.5588568,104.593284 63.5784393,104.565961 C63.8504365,104.186553 64.12009,103.805356 64.3992109,103.431252 C64.456355,103.354649 64.5410688,103.282887 64.6286507,103.247608 C64.8911496,103.141923 65.0912618,102.964663 65.2799945,102.760881 C65.5131658,102.509145 65.6415164,102.207388 65.6864175,101.880282 C65.7550644,101.380264 65.6382783,100.920891 65.3065775,100.522887 C65.0503388,100.215425 64.7326696,100.011489 64.3455516,99.9260656 C63.8809668,99.8234961 63.434546,99.882768 63.0305284,100.144989 C62.7403364,100.333352 62.4999797,100.571766 62.370889,100.903868 C62.320992,101.032249 62.2325467,101.126986 62.1195846,101.206272 C61.7542078,101.462726 61.3927476,101.724701 61.028697,101.983067 C61.001158,102.002588 60.9653543,102.01039 60.9192505,102.02948 C60.9092588,101.932739 60.8931301,101.849443 60.8934641,101.76621 C60.894487,101.527796 60.8967999,101.289074 60.9103998,101.051184 C60.9147789,100.974519 60.9597108,100.900938 60.9794784,100.824273 C61.1159396,100.294742 61.4063167,99.8508809 61.7485027,99.4355455 C61.7614858,99.4197869 61.7751473,99.4036274 61.791461,99.3918162 C62.1916546,99.1020251 62.6023333,98.8339444 63.0860072,98.6973599 C63.7801552,98.5014109 64.4607957,98.5400826 65.1310128,98.7980174 Z M56.0988096,98.5675874 C56.6165911,98.5674026 57.1019303,98.6843429 57.5554132,98.9238978 C58.3962607,99.3680673 58.9063942,100.064436 59.106013,100.993513 C59.1763869,101.320865 59.1852993,101.649297 59.1601966,101.980659 C59.1589013,101.997805 59.1519935,102.01452 59.1443763,102.044588 C59.1097445,102.028736 59.0820514,102.021119 59.0602176,102.005361 C58.6775095,101.729015 58.2957266,101.451375 57.9132036,101.174782 C57.8243265,101.110515 57.7719316,101.02247 57.7322113,100.922645 C57.5711101,100.517302 57.2860681,100.20984 56.8973157,100.036835 C56.3221125,99.780874 55.7346973,99.7804422 55.1947428,100.145171 C54.8682536,100.36576 54.6181211,100.660794 54.5098156,101.054172 C54.4704346,101.197171 54.4223263,101.338382 54.3931837,101.483416 C54.3352378,101.771634 54.4173921,102.040332 54.5164151,102.308536 C54.5945912,102.520182 54.7325634,102.688592 54.8875278,102.838714 C55.0489067,102.995067 55.2406616,103.115923 55.447805,103.212603 C55.5342459,103.25294 55.6168935,103.323344 55.6742535,103.400225 C55.9487486,103.768254 56.214023,104.14316 56.4825662,104.51563 C56.4945625,104.532252 56.5076997,104.548288 56.517969,104.565958 C56.5431951,104.609379 56.5289784,104.631059 56.4798524,104.638768 C56.1912023,104.683978 55.9007944,104.689806 55.6158142,104.629794 C55.3932822,104.582889 55.1734641,104.51563 54.9591352,104.43878 C54.517772,104.280454 54.1530121,104.005928 53.8393827,103.66112 C53.6433103,103.445589 53.4664505,103.213435 53.3450386,102.949055 C53.1962727,102.625064 53.0858086,102.287997 53.0480312,101.928079 C52.9888826,101.364348 53.0753543,100.823067 53.3207068,100.318731 C53.4494583,100.054136 53.6312524,99.8106024 53.8161611,99.5792198 C54.0776115,99.2520522 54.4155418,99.0042017 54.7976331,98.8408492 C55.2088052,98.6650379 55.6430447,98.5677418 56.0988096,98.5675874 Z" id="Drone_icon"></path>
                </g>
            </g>
        </g>
    </g>
</svg>