<svg xmlns="http://www.w3.org/2000/svg" width="24.887" height="24.887" viewBox="0 0 24.887 24.887">
  <path id="noun-time-534804" d="M86.325,15.3a1.023,1.023,0,0,1-.455-.107l-4.081-2.041a1.021,1.021,0,0,1-.564-.913V5.1a1.02,1.02,0,0,1,2.04,0v6.511l3.517,1.759a1.02,1.02,0,0,1-.457,1.932Zm-4.08,9.183A12.244,12.244,0,1,1,94.488,12.244,12.257,12.257,0,0,1,82.245,24.487Zm0-22.447a10.2,10.2,0,1,0,10.2,10.2,10.214,10.214,0,0,0-10.2-10.2Z" transform="translate(-69.801 0.2)" fill="#5078e1" stroke="#fff" stroke-width="0.4"/>
</svg>
