<svg xmlns="http://www.w3.org/2000/svg" width="20.125" height="20.125" viewBox="0 0 20.125 20.125">
  <path id="Path_429" data-name="Path 429" d="M105.733,44.167a.652.652,0,0,1,.213-.492.683.683,0,0,1,.5-.2h10.979a.687.687,0,0,1,.693.693v3.242a.683.683,0,0,1-.2.5.709.709,0,0,1-.492.212H106.449a.723.723,0,0,1-.5-.212.683.683,0,0,1-.2-.5V44.223Zm-3.287-.492a.669.669,0,0,1,.2.492v3.242a.684.684,0,0,1-.2.5.652.652,0,0,1-.492.212H98.712A.726.726,0,0,1,98,47.409V44.167a.651.651,0,0,1,.213-.492.683.683,0,0,1,.5-.2h3.242a.669.669,0,0,1,.492.2ZM98.208,32.439a.663.663,0,0,1-.213-.5V28.693a.651.651,0,0,1,.213-.492.683.683,0,0,1,.5-.2h3.242a.687.687,0,0,1,.693.693v3.242a.684.684,0,0,1-.2.5.669.669,0,0,1-.492.2H98.712A.683.683,0,0,1,98.208,32.439Zm0,3.488a.683.683,0,0,1,.5-.2h3.242a.687.687,0,0,1,.693.693v3.242a.67.67,0,0,1-.2.492.637.637,0,0,1-.492.224H98.712A.747.747,0,0,1,98,39.661V36.419A.651.651,0,0,1,98.208,35.927Zm19.219-.2a.687.687,0,0,1,.693.693v3.242a.668.668,0,0,1-.2.492.636.636,0,0,1-.492.224H106.448a.649.649,0,0,1-.5-.224.669.669,0,0,1-.2-.492v-3.2l-.011-.045a.652.652,0,0,1,.213-.492.683.683,0,0,1,.5-.2Zm.492-3.287a.669.669,0,0,1-.492.2v.011H106.449V32.64a.688.688,0,0,1-.7-.7V28.727l-.011-.034a.652.652,0,0,1,.213-.492.683.683,0,0,1,.5-.2h10.979a.687.687,0,0,1,.693.693v3.242a.682.682,0,0,1-.2.5Z" transform="translate(-97.996 -28)" fill="#b2b2b2" fill-rule="evenodd"/>
</svg>
