<?xml version="1.0" encoding="UTF-8"?>
<svg width="35px" height="29px" viewBox="0 0 35 29" version="1.1" xmlns="http://www.w3.org/2000/svg" xmlns:xlink="http://www.w3.org/1999/xlink">
    <title>message_disable</title>
    <g id="Page-1" stroke="none" stroke-width="1" fill="none" fill-rule="evenodd">
        <g id="message_disable" fill="#777777" fill-rule="nonzero">
            <path d="M34.9941631,4.45492538 C35.0019456,4.32341183 35.0019456,4.19154581 34.9941631,4.06003226 L34.9941631,3.94896857 L34.310397,4.01067062 L34.9086922,3.86258573 L34.9086922,3.72684122 C34.8252531,3.44298633 34.7190812,3.16647002 34.5912297,2.90002368 C34.4728763,2.62416625 34.3298304,2.35980522 34.1638759,2.11024755 C33.2837851,0.787906433 31.8090543,-0.0036159092 30.2322218,1.24203873e-05 L4.71310081,1.24203873e-05 C3.13597275,0.00601078318 1.66575891,0.806824912 0.793656872,2.13492837 C0.61445194,2.41097971 0.463102703,2.704506 0.34188296,3.01109746 C0.229113201,3.29427459 0.143255648,3.58765271 0.0854707401,3.88726654 L0.695976028,4.01067062 L0.0610505287,4.01067062 C0.0297313493,4.16116432 0.00932692085,4.31376846 0,4.46726577 L0,24.2119211 C0.00671036959,26.8534898 2.12384498,28.993218 4.73752104,29.0000124 L30.2566421,29.0000124 C32.8703182,28.993218 34.9874527,26.8534898 34.9941631,24.2119211 L34.9941631,4.46726577 L34.9941631,4.45492538 Z M31.6608042,5.86173206 L31.6608042,23.1383054 C31.6608042,24.5013895 30.5674739,25.6063874 29.2187831,25.6063874 L5.78759013,25.6063874 C4.43889908,25.6063874 3.34546032,24.5013895 3.34546032,23.1383054 L3.34546032,5.86173206 C3.34416908,5.65376042 3.36878438,5.44644391 3.4188296,5.24471159 L16.1783901,15.5736344 L16.2760709,15.6970385 C16.5636609,15.9517383 16.921658,16.1111103 17.3017198,16.1536336 L17.5337118,16.1536336 C17.9736393,16.1713179 18.4015751,16.0063426 18.7180921,15.6970385 L31.5753334,5.24471159 C31.6302953,5.44574423 31.6590289,5.65317384 31.6608042,5.86173206 Z M17.4970815,12.3774683 L6.39809539,3.36896934 L28.5960676,3.36896934 L17.4970815,12.3774683 Z" id="email"></path>
        </g>
    </g>
</svg>