<svg xmlns="http://www.w3.org/2000/svg" width="51.396" height="54" viewBox="0 0 51.396 54">
  <g id="my_activity_enable" transform="translate(0.5)">
    <rect id="Rectangle_126" data-name="Rectangle 126" width="50" height="54" transform="translate(0.5)" fill="none"/>
    <path id="Path_168" data-name="Path 168" d="M1,47.644a3.176,3.176,0,0,0,3.173,3.173H25.617a3.167,3.167,0,0,0,.16-6.33,4.464,4.464,0,0,0-4.343-3.47H8.357a4.464,4.464,0,0,0-4.343,3.47A3.169,3.169,0,0,0,1,47.644Zm7.355-4.612H21.434a2.45,2.45,0,0,1,2.229,1.438H6.128A2.45,2.45,0,0,1,8.357,43.032ZM4.175,46.486H25.617a1.157,1.157,0,0,1,0,2.314H4.175a1.157,1.157,0,0,1,0-2.314Zm45.64-.888.575-.629a3.868,3.868,0,0,0-.251-5.457L34.969,25.67a2.3,2.3,0,0,0-2.278-.425L28.4,21.325l4.3-4.714a2.229,2.229,0,0,0,.1-2.868,2.234,2.234,0,0,0,.222-.2l1.186-1.3a2.279,2.279,0,0,0-.151-3.219l-7.63-6.885a2.342,2.342,0,0,0-3.215.147L21.824,3.814A2.306,2.306,0,0,0,19,4.2L6.373,18.044a2.223,2.223,0,0,0-.133,2.851L4.85,22.418A2.275,2.275,0,0,0,5,25.636l7.631,6.886a2.275,2.275,0,0,0,3.214-.148l1.186-1.3a2.283,2.283,0,0,0,.178-.237,2.241,2.241,0,0,0,2.852-.37l4.2-4.6,4.281,3.895a2.211,2.211,0,0,0,.647,2.246l15.17,13.841A3.863,3.863,0,0,0,49.815,45.6ZM24.705,3.647c.139-.153.243-.129.371-.013l7.63,6.885a.26.26,0,0,1,.017.367l-1.186,1.3c-.139.153-.242.131-.371.014L23.348,5.135ZM15.544,29.716l-1.187,1.3c-.138.152-.243.129-.37.014L6.356,24.143a.259.259,0,0,1-.017-.366L7.7,22.28l7.849,7.107a.266.266,0,0,1,.058.142A.254.254,0,0,1,15.544,29.716ZM18.58,29.1a.2.2,0,0,1-.319.018l-1.309-1.186c-.025-.025-.043-.053-.069-.077L7.874,19.709a.212.212,0,0,1-.012-.307L20.488,5.557a.211.211,0,0,1,.159-.072.226.226,0,0,1,.14.054L31.2,14.958a.237.237,0,0,1,.011.3Zm7.038-4.725,1.425-1.562,4.081,3.729L29.707,28.1Zm4.928,6.141a.235.235,0,0,1-.015-.333l2.746-3.01a.236.236,0,0,1,.333-.016L48.781,41a1.851,1.851,0,0,1,.12,2.61l-.575.629a1.9,1.9,0,0,1-2.61.12Z" transform="translate(-1.002 -0.073)" fill="#5078e1" stroke="#5078e1" stroke-width="1"/>
  </g>
</svg>
