<svg xmlns="http://www.w3.org/2000/svg" width="51.001" height="54" viewBox="0 0 51.001 54">
  <g id="my_activity_disable" transform="translate(0.5)">
    <rect id="Rectangle_121" data-name="Rectangle 121" width="49.605" height="54" fill="none"/>
    <g id="Group_614" data-name="Group 614" transform="translate(0 2)">
      <path id="Path_113" data-name="Path 113" d="M1,47.644A3.164,3.164,0,0,0,4.15,50.816H25.424a3.167,3.167,0,0,0,.159-6.33,4.437,4.437,0,0,0-4.309-3.47H8.3a4.437,4.437,0,0,0-4.309,3.47A3.158,3.158,0,0,0,1,47.644Zm7.3-4.612H21.274a2.43,2.43,0,0,1,2.212,1.438H6.088A2.43,2.43,0,0,1,8.3,43.032ZM4.15,46.486H25.424a1.157,1.157,0,0,1,0,2.314H4.15a1.157,1.157,0,0,1,0-2.314ZM49.432,45.6l.57-.629a3.889,3.889,0,0,0-.249-5.457L34.7,25.67a2.273,2.273,0,0,0-2.26-.425l-4.257-3.92,4.265-4.714a2.242,2.242,0,0,0,.1-2.868,2.222,2.222,0,0,0,.22-.2l1.177-1.3a2.292,2.292,0,0,0-.15-3.219l-7.57-6.885a2.31,2.31,0,0,0-3.19.147L21.661,3.814a2.274,2.274,0,0,0-2.8.385L6.331,18.044A2.237,2.237,0,0,0,6.2,20.894L4.82,22.418a2.287,2.287,0,0,0,.15,3.218l7.571,6.886a2.244,2.244,0,0,0,3.189-.148l1.177-1.3a2.282,2.282,0,0,0,.176-.237,2.21,2.21,0,0,0,2.829-.37l4.164-4.6,4.248,3.895a2.222,2.222,0,0,0,.642,2.246L44.018,45.848A3.811,3.811,0,0,0,49.432,45.6ZM24.519,3.647c.138-.153.241-.129.368-.013l7.57,6.885a.262.262,0,0,1,.017.367l-1.177,1.3c-.138.153-.24.131-.368.014L23.173,5.135ZM15.43,29.716l-1.178,1.3c-.137.152-.241.129-.367.014L6.314,24.143a.261.261,0,0,1-.017-.366l1.354-1.5,7.788,7.107a.267.267,0,0,1,.058.142A.255.255,0,0,1,15.43,29.716Zm3.012-.614a.2.2,0,0,1-.317.018l-1.3-1.186c-.024-.025-.043-.053-.069-.077L7.82,19.709a.214.214,0,0,1-.012-.307L20.335,5.557a.208.208,0,0,1,.158-.072.224.224,0,0,1,.139.054l10.329,9.418a.239.239,0,0,1,.011.3Zm6.982-4.725,1.414-1.562,4.049,3.729L29.482,28.1Zm4.889,6.141a.236.236,0,0,1-.015-.333l2.725-3.01a.233.233,0,0,1,.331-.016L48.406,41a1.861,1.861,0,0,1,.119,2.61l-.57.629a1.876,1.876,0,0,1-2.59.12Z" transform="translate(-1.002 -1.573)" fill="#9f9e9e" stroke="#9f9e9e" stroke-width="0.2"/>
    </g>
  </g>
</svg>
