<svg xmlns="http://www.w3.org/2000/svg" width="29.679" height="29.68" viewBox="0 0 29.679 29.68">
  <g id="no_result_found" transform="translate(0.429 0.25)">
    <path id="Path_523" data-name="Path 523" d="M8.42,18.519,1.851,25.086a2.905,2.905,0,0,0,4.108,4.108l6.568-6.569A11.617,11.617,0,1,0,8.42,18.519Zm1.139,1.6L3.221,26.455A.968.968,0,0,0,4.59,27.824l6.337-6.337a11.571,11.571,0,0,1-1.369-1.369ZM18.428,2.936a9.681,9.681,0,1,1-9.681,9.681A9.686,9.686,0,0,1,18.428,2.936Zm0,1.936a7.745,7.745,0,1,0,7.745,7.745A7.749,7.749,0,0,0,18.428,4.873Zm0,1.936a5.809,5.809,0,1,1-5.809,5.809A5.812,5.812,0,0,1,18.428,6.809Zm-1.369,5.809L15.807,13.87a.968.968,0,1,0,1.369,1.369l1.252-1.252,1.252,1.252a.968.968,0,1,0,1.369-1.369L19.8,12.618l1.252-1.252A.968.968,0,1,0,19.68,10l-1.252,1.252L17.176,10a.968.968,0,1,0-1.369,1.369Z" transform="translate(-1.046 -1)" fill="#7c7c7c" stroke="#f8f8f8" stroke-width="0.5" fill-rule="evenodd"/>
  </g>
</svg>
