<svg xmlns="http://www.w3.org/2000/svg" width="15.124" height="19.438" viewBox="0 0 15.124 19.438">
  <g id="Group_200" data-name="Group 200" transform="translate(-11.625 -6.585)">
    <path id="Path_112" data-name="Path 112" d="M19.242,17.243l-1.286-1.286V10.973c0-3.06-1.635-5.622-4.486-6.3V4a1.5,1.5,0,0,0-2.99,0v.678c-2.861.678-4.486,3.23-4.486,6.3v4.984L4.709,17.243a1,1,0,0,0,.7,1.7H18.535a1,1,0,0,0,.708-1.7Zm-3.279-.289H7.989V10.973c0-2.472,1.505-4.486,3.987-4.486s3.987,2.014,3.987,4.486Zm-3.987,4.984a2,2,0,0,0,1.994-1.994H9.982A1.993,1.993,0,0,0,11.976,21.938Z" transform="translate(7.211 4.085)" fill="#fff"/>
  </g>
</svg>
