<svg id="payment_enable" xmlns="http://www.w3.org/2000/svg" width="16" height="12" viewBox="0 0 16 12">
  <path id="Path_498" data-name="Path 498" d="M14.75,8H3.25A1.251,1.251,0,0,0,2,9.25a.5.5,0,1,0,1,0A.25.25,0,0,1,3.25,9h11.5a.25.25,0,0,1,.25.25V11H13.965A1,1,0,0,0,13,10.25H1a1,1,0,0,0-1,1V19a1,1,0,0,0,1,1H13a1,1,0,0,0,1-1V17.75h.75A1.251,1.251,0,0,0,16,16.5V9.25A1.251,1.251,0,0,0,14.75,8ZM15,13.75H14V12h1ZM1,19V11.25H13V19Zm13.75-2.25H14v-2h1V16.5A.25.25,0,0,1,14.75,16.75Z" transform="translate(0 -8)" fill="#5078e1"/>
  <path id="Path_499" data-name="Path 499" d="M8.489,30.935h2.348a.489.489,0,0,0,.489-.489V28.489A.489.489,0,0,0,10.837,28H8.489A.489.489,0,0,0,8,28.489v1.957a.489.489,0,0,0,.489.489Zm.489-1.957h1.37v.978H8.978Zm5.136,2.935H8.489a.489.489,0,0,0,0,.978h5.626a.489.489,0,0,0,0-.978Z" transform="translate(-6.043 -22.923)" fill="#5078e1"/>
  <path id="Path_500" data-name="Path 500" d="M40.712,44H39.489a.489.489,0,0,0,0,.978h1.223a.489.489,0,0,0,0-.978Z" transform="translate(-29.215 -34.982)" fill="#5078e1"/>
</svg>
