<?xml version="1.0" encoding="UTF-8"?>
<svg width="30px" height="30px" viewBox="0 0 30 30" version="1.1" xmlns="http://www.w3.org/2000/svg" xmlns:xlink="http://www.w3.org/1999/xlink">
    <title>call_enable</title>
    <g id="Page-1" stroke="none" stroke-width="1" fill="none" fill-rule="evenodd">
        <g id="call_enable" transform="translate(1.000000, 1.000000)" stroke="#FFFFFF" stroke-width="2">
            <path d="M27.9991208,20.9634387 L27.9991208,25.1785257 C28.0023387,25.9697609 27.6711636,26.7256852 27.086956,27.2605888 C26.5027479,27.7954927 25.7196506,28.0598019 24.9300488,27.9885837 C20.5979184,27.5187994 16.4366022,26.0414167 12.7804657,23.6751447 C9.37890365,21.517953 6.49497276,18.6397623 4.33347867,15.2449708 C1.95421308,11.5795368 0.473547674,7.40630646 0.0114369336,3.06336951 C-0.0596962498,2.27777894 0.20328493,1.49852192 0.736140261,0.915952811 C1.26899559,0.333383724 2.02265647,0.00114916681 2.81302099,0 L7.03651453,0 C8.44978564,-0.0134755628 9.6543778,1.02041168 9.85217689,2.41705621 C10.0304407,3.76597739 10.3610367,5.09044263 10.8376587,6.36518763 C11.2244392,7.39208825 10.9770552,8.54973552 10.2041347,9.3297988 L8.4161891,11.1141856 C10.4203149,14.6317401 13.3386063,17.5442228 16.8631762,19.5443595 L18.6511218,17.7599727 C19.4327408,16.9885906 20.5926968,16.741699 21.6216455,17.1277096 C22.8989329,17.603383 24.2260396,17.9333209 25.5776512,18.1112299 C26.9933137,18.3105479 28.0345842,19.5370428 27.9991208,20.9634387 Z" id="contact_no"></path>
        </g>
    </g>
</svg>