<svg xmlns="http://www.w3.org/2000/svg" width="17" height="17" viewBox="0 0 17 17">
  <g id="Layer_2" data-name="Layer 2" transform="translate(0.129 0.442)">
    <g id="search" transform="translate(0 -0.313)">
      <rect id="Rectangle_81" data-name="Rectangle 81" width="17" height="17" transform="translate(-0.129 -0.128)" fill="#5078e1" opacity="0"/>
      <path id="Path_2" data-name="Path 2" d="M15.45,14.452l-2.39-2.383a5.568,5.568,0,0,0,1.188-3.445,5.624,5.624,0,1,0-5.624,5.624,5.568,5.568,0,0,0,3.445-1.188l2.383,2.39a.706.706,0,1,0,1-1ZM4.406,8.624a4.218,4.218,0,1,1,4.218,4.218A4.218,4.218,0,0,1,4.406,8.624Z" transform="translate(-0.813 -0.671)" fill="#5078e1"/>
    </g>
  </g>
</svg>
