<svg xmlns="http://www.w3.org/2000/svg" width="10.301" height="13.301" viewBox="0 0 10.301 13.301">
  <g id="sign_out_enable" transform="translate(0.15 0.15)">
    <path id="Path_567" data-name="Path 567" d="M4,8.5a.638.638,0,0,0,.625.65H9.369L7.931,10.638a.668.668,0,0,0,0,.923.608.608,0,0,0,.887,0l2.5-2.6a.654.654,0,0,0,.131-.215.674.674,0,0,0,0-.494.654.654,0,0,0-.131-.215l-2.5-2.6a.611.611,0,0,0-.887,0,.671.671,0,0,0,0,.923L9.369,7.85H4.625A.638.638,0,0,0,4,8.5ZM12.125,2H5.875A1.914,1.914,0,0,0,4,3.95V5.9a.625.625,0,1,0,1.25,0V3.95a.638.638,0,0,1,.625-.65h6.25a.638.638,0,0,1,.625.65v9.1a.638.638,0,0,1-.625.65H5.875a.638.638,0,0,1-.625-.65V11.1A.625.625,0,1,0,4,11.1v1.95A1.914,1.914,0,0,0,5.875,15h6.25A1.914,1.914,0,0,0,14,13.05V3.95A1.914,1.914,0,0,0,12.125,2Z" transform="translate(-4 -2)" fill="#5078e1" stroke="#f4f5f8" stroke-width="0.3"/>
  </g>
</svg>
