<svg id="support_disable" xmlns="http://www.w3.org/2000/svg" width="11" height="12" viewBox="0 0 11 12">
  <path id="Path_563" data-name="Path 563" d="M9.806,4.812a.6.6,0,0,0,.831-.234.6.6,0,0,1,.69-.3.629.629,0,0,1,.453.615.622.622,0,0,1-.611.632.632.632,0,0,0,0,1.263,1.852,1.852,0,0,0,1.8-1.566,1.9,1.9,0,0,0-1.179-2.109,1.806,1.806,0,0,0-2.215.833.65.65,0,0,0-.061.481A.629.629,0,0,0,9.806,4.812Zm2.628,4.5a.615.615,0,0,0-.685.543A4.33,4.33,0,0,1,7.5,13.736H4.085l.4-.411a.647.647,0,0,0,0-.891,4.529,4.529,0,0,1-.922-4.81A4.28,4.28,0,0,1,7.5,4.895a.632.632,0,0,0,0-1.263A5.49,5.49,0,0,0,2.564,6.859a5.838,5.838,0,0,0,.659,6L2.178,13.92a.647.647,0,0,0-.128.688A.612.612,0,0,0,2.612,15H7.5a5.567,5.567,0,0,0,5.458-4.971.647.647,0,0,0-.119-.47A.607.607,0,0,0,12.434,9.316ZM11.4,7.465a.593.593,0,0,0-.355-.044l-.11.038-.11.057-.092.082a.634.634,0,0,0-.128.2.546.546,0,0,0-.049.253A.65.65,0,0,0,10.6,8.3a.633.633,0,0,0,.134.2.6.6,0,0,0,.434.183.622.622,0,0,0,.611-.632.546.546,0,0,0-.049-.24.665.665,0,0,0-.33-.341Z" transform="translate(-2.002 -3)" fill="#3d3d3e"/>
</svg>
