<svg id="Group_570" data-name="Group 570" xmlns="http://www.w3.org/2000/svg" xmlns:xlink="http://www.w3.org/1999/xlink" width="27.944" height="28.358" viewBox="0 0 27.944 28.358">
  <defs>
    <clipPath id="clip-path">
      <rect id="Rectangle_104" data-name="Rectangle 104" width="27.944" height="28.358" fill="#5078e1"/>
    </clipPath>
  </defs>
  <g id="Group_569" data-name="Group 569" transform="translate(0 0)" clip-path="url(#clip-path)">
    <path id="Path_142" data-name="Path 142" d="M125.109,68.565a8.21,8.21,0,1,0-8.211,8.21,8.221,8.221,0,0,0,8.211-8.21M116.9,75.644a7.079,7.079,0,1,1,7.08-7.079,7.086,7.086,0,0,1-7.08,7.079" transform="translate(-103.108 -57.255)" fill="#5078e1"/>
    <path id="Path_143" data-name="Path 143" d="M195.472,138.3l-2.147-.416-1.059-1.914a.566.566,0,0,0-.495-.292h0a.566.566,0,0,0-.495.292l-1.058,1.914-2.147.416a.565.565,0,0,0-.306.942l1.493,1.6-.27,2.17a.566.566,0,0,0,.8.582l1.981-.926,1.981.926a.566.566,0,0,0,.8-.582l-.268-2.17,1.494-1.6a.566.566,0,0,0-.306-.942Zm-2.2,1.959a.566.566,0,0,0-.148.456l.175,1.418-1.294-.605a.567.567,0,0,0-.479,0l-1.293.6.176-1.417a.566.566,0,0,0-.148-.456l-.975-1.043,1.4-.272a.566.566,0,0,0,.388-.282l.691-1.25.692,1.25a.566.566,0,0,0,.387.282l1.4.272Z" transform="translate(-177.981 -128.716)" fill="#5078e1"/>
    <path id="Path_144" data-name="Path 144" d="M23.158,17.1l.762-.735a2.531,2.531,0,0,0,.8-1.857l-.112-1.956.471-1.419a2.533,2.533,0,0,0-.156-2.016l-1.008-1.68-.244-1.476A2.536,2.536,0,0,0,22.595,4.25L20.922,3.232l-.9-1.193a2.521,2.521,0,0,0-1.748-1.018L16.319.9,14.965.26A2.5,2.5,0,0,0,13.844,0a2.3,2.3,0,0,0-.9.169l-1.79.8-1.494.064a2.537,2.537,0,0,0-1.83.861L6.621,3.43l-1.293.751a2.519,2.519,0,0,0-1.22,1.612l-.36,1.925-.8,1.267a2.526,2.526,0,0,0-.331,1.994L3.2,12.851l-.117,1.491a2.53,2.53,0,0,0,.633,1.92L4.793,17.35.144,22.535a.566.566,0,0,0,.365.941l4.08.407L6.186,28a.566.566,0,0,0,.98.135l4.219-5.611a2.51,2.51,0,0,0,.413.038,1.744,1.744,0,0,0,.308-.025l1.928-.347,1.466.3a2.393,2.393,0,0,0,.529.059,2.6,2.6,0,0,0,.671-.09l4.078,5.424a.566.566,0,0,0,.452.226.534.534,0,0,0,.078-.005.566.566,0,0,0,.45-.356l1.6-4.114,4.081-.409a.566.566,0,0,0,.365-.94ZM6.873,26.639l-1.354-3.49a.566.566,0,0,0-.471-.358L1.731,22.46,5.4,18.367l.283.659a2.516,2.516,0,0,0,1.453,1.406L9,21.021l1.162.945c.046.039.092.075.139.109Zm8.872-5.261-.016,0-1.58-.319a.563.563,0,0,0-.212,0L11.9,21.42a.635.635,0,0,1-.107.007,1.445,1.445,0,0,1-.9-.326l-.011-.009L9.633,20.075a.567.567,0,0,0-.187-.1l-1.971-.621a1.4,1.4,0,0,1-.744-.75l-.006-.016-.636-1.48,0-.007-.013-.028-.011-.02-.016-.026-.014-.02-.017-.023L6,16.961l-.017-.019-.009-.01L4.515,15.465a1.406,1.406,0,0,1-.31-1.012s0-.01,0-.015l.126-1.606a.569.569,0,0,0-.023-.211L3.7,10.646a1.411,1.411,0,0,1,.2-1.04L3.9,9.594,4.762,8.23a.566.566,0,0,0,.077-.2L5.219,6a1.4,1.4,0,0,1,.655-.829l.015-.008,1.393-.809a.57.57,0,0,0,.16-.139L8.719,2.6a1.417,1.417,0,0,1,.969-.432H9.7l1.609-.069a.564.564,0,0,0,.206-.049L13.407,1.2a1.209,1.209,0,0,1,.438-.071,1.377,1.377,0,0,1,.616.14l.015.007,1.458.686a.565.565,0,0,0,.205.053L18.2,2.15a1.4,1.4,0,0,1,.9.551l.01.013L20.085,4a.568.568,0,0,0,.157.142L22,5.215a1.412,1.412,0,0,1,.545.909l0,.016.263,1.589a.564.564,0,0,0,.073.2L23.95,9.7a1.409,1.409,0,0,1,.06,1.057l0,.015L23.5,12.3a.565.565,0,0,0-.028.21l.118,2.063a1.407,1.407,0,0,1-.438.963l-.011.011L21.98,16.666l-.014.015-.017.018-.017.021-.018.022-.013.019-.017.027-.009.018c-.005.01-.011.02-.015.03v0L21,18.72a1.406,1.406,0,0,1-.836.649l-.016,0-1.547.453a.564.564,0,0,0-.188.1l-1.629,1.268a.739.739,0,0,1-.123.072l-.013.007a1.512,1.512,0,0,1-.623.14,1.268,1.268,0,0,1-.283-.032Zm7.149,1.157a.566.566,0,0,0-.471.358l-1.354,3.489-3.363-4.474,1.32-1.027,1.436-.42a2.532,2.532,0,0,0,1.572-1.273l.5-1.093L26.212,22.2Z" transform="translate(0 -0.001)" fill="#5078e1"/>
  </g>
</svg>
