<svg xmlns="http://www.w3.org/2000/svg" width="64.623" height="64.705" viewBox="0 0 64.623 64.705">
  <g id="Group_1543" data-name="Group 1543" transform="translate(-6.563 -6.563)">
    <path id="Path_443" data-name="Path 443" d="M142.341,136.021l-15.15,15.15-3.787,3.787-3.786-3.787-6.313-6.313,3.787-3.787,6.313,6.313,15.148-15.15Z" transform="translate(-88.947 -104.721)" fill="#5078e1"/>
    <path id="Path_444" data-name="Path 444" d="M18.363,40.126H7.813a1.25,1.25,0,0,1,0-2.5H18.363a1.25,1.25,0,0,1,0,2.5Zm51.573,0H59.389a1.25,1.25,0,0,1,0-2.5H69.936a1.25,1.25,0,1,1,0,2.5ZM38.876,19.613a1.25,1.25,0,0,1-1.25-1.25V7.813a1.25,1.25,0,0,1,2.5,0V18.363A1.25,1.25,0,0,1,38.876,19.613Zm0,51.655a1.25,1.25,0,0,1-1.25-1.25V59.389a1.25,1.25,0,0,1,2.5,0V70.018a1.25,1.25,0,0,1-1.25,1.25Zm22.038-9.252a1.247,1.247,0,0,1-.884-.366l-7.46-7.46a1.25,1.25,0,1,1,1.768-1.768l7.46,7.46a1.25,1.25,0,0,1-.884,2.134Zm-44.558-.482a1.25,1.25,0,0,1-.884-2.134l7.471-7.471A1.25,1.25,0,1,1,24.711,53.7l-7.471,7.47a1.247,1.247,0,0,1-.884.366ZM52.81,25.074a1.25,1.25,0,0,1-.884-2.134l7.459-7.459a1.25,1.25,0,1,1,1.768,1.768l-7.459,7.459a1.247,1.247,0,0,1-.884.366Zm-28.463.572a1.246,1.246,0,0,1-.884-.366l-7.451-7.451a1.25,1.25,0,1,1,1.768-1.768l7.451,7.451a1.25,1.25,0,0,1-.884,2.134Z" transform="translate(0 0)" fill="#5078e1"/>
    <path id="Path_445" data-name="Path 445" d="M68.941,56.725a1.251,1.251,0,0,1-1.162-.788L65.811,51a1.25,1.25,0,0,1,2.323-.925L70.1,55.012a1.25,1.25,0,0,1-1.161,1.713ZM57.592,68.215a1.245,1.245,0,0,1-.441-.081l-4.4-1.663a1.25,1.25,0,1,1,.884-2.339l4.4,1.663a1.251,1.251,0,0,1-.442,2.42ZM53.191,85.8a1.25,1.25,0,0,1-.63-2.331l4.4-2.564a1.25,1.25,0,1,1,1.259,2.161l-4.4,2.564A1.244,1.244,0,0,1,53.191,85.8ZM66.136,99.089a1.25,1.25,0,0,1-1.156-1.725l1.945-4.74a1.25,1.25,0,0,1,2.313.949l-1.945,4.74A1.251,1.251,0,0,1,66.136,99.089Zm21.217,0a1.251,1.251,0,0,1-1.148-.753L84.146,93.6a1.25,1.25,0,1,1,2.294-1L88.5,97.34a1.25,1.25,0,0,1-1.146,1.749ZM100,85.06a1.248,1.248,0,0,1-.5-.1l-4.221-1.826a1.25,1.25,0,1,1,.993-2.3l4.221,1.826a1.25,1.25,0,0,1-.5,2.4ZM95.434,67.383a1.251,1.251,0,0,1-.5-2.395l4.57-2.013a1.25,1.25,0,1,1,1.008,2.289l-4.57,2.013A1.247,1.247,0,0,1,95.434,67.383ZM84.946,56.942a1.25,1.25,0,0,1-1.2-1.6l1.521-5.158a1.25,1.25,0,0,1,2.4.707l-1.521,5.158a1.251,1.251,0,0,1-1.2.9Z" transform="translate(-37.812 -35.598)" fill="#b2b2b2"/>
  </g>
</svg>
