<?xml version="1.0" encoding="UTF-8"?>
<svg width="19px" height="19px" viewBox="0 0 19 19" version="1.1" xmlns="http://www.w3.org/2000/svg" xmlns:xlink="http://www.w3.org/1999/xlink">
    <title>area</title>
    <g id="Page-1" stroke="none" stroke-width="1" fill="none" fill-rule="evenodd">
        <g id="area" fill="#7C7C7C" fill-rule="nonzero">
            <path d="M5.7,0 L0.95,0 C0.425329488,0 4.4408921e-16,0.425329488 4.4408921e-16,0.95 L4.4408921e-16,5.7 C4.4408921e-16,6.03940232 0.181068968,6.35302299 0.474999994,6.52272415 C0.76893102,6.69242531 1.13106898,6.69242531 1.42500001,6.52272415 C1.71893103,6.35302299 1.90000001,6.03940232 1.9,5.7 L1.9,1.9 L5.7,1.9 C6.03940232,1.90000001 6.35302299,1.71893103 6.52272415,1.42500001 C6.69242531,1.13106898 6.69242531,0.76893102 6.52272415,0.474999994 C6.35302299,0.181068968 6.03940232,0 5.7,0 Z M5.7,17.1 L1.9,17.1 L1.9,13.3 C1.9,12.7753295 1.47467051,12.35 0.95,12.35 C0.425329488,12.35 0,12.7753295 0,13.3 L0,18.05 C0,18.5746705 0.425329488,19 0.95,19 L5.7,19 C6.22467051,19 6.65,18.5746705 6.65,18.05 C6.65,17.5253295 6.22467051,17.1 5.7,17.1 Z M18.05,0 L13.3,0 C12.7753295,0 12.35,0.425329495 12.35,0.95 C12.35,1.4746705 12.7753295,1.89999999 13.3,1.9 L17.1,1.9 L17.1,5.7 C17.1,6.22467051 17.5253295,6.65 18.05,6.65 C18.5746705,6.65 19,6.22467051 19,5.7 L19,0.95 C19,0.425329488 18.5746705,0 18.05,0 Z M18.05,12.35 C17.5253295,12.35 17.1,12.7753295 17.1,13.3 L17.1,17.1 L13.3,17.1 C12.7753295,17.1 12.35,17.5253295 12.35,18.05 C12.35,18.5746705 12.7753295,19 13.3,19 L18.05,19 C18.5746705,19 19,18.5746705 19,18.05 L19,13.3 C19,12.7753295 18.5746705,12.35 18.05,12.35 Z" id="Path_164"></path>
        </g>
    </g>
</svg>