<?xml version="1.0" encoding="UTF-8"?>
<svg width="15px" height="20px" viewBox="0 0 15 20" version="1.1" xmlns="http://www.w3.org/2000/svg" xmlns:xlink="http://www.w3.org/1999/xlink">
    <title>bath</title>
    <g id="Page-1" stroke="none" stroke-width="1" fill="none" fill-rule="evenodd">
        <g id="bath" transform="translate(1.000000, 1.000000)" stroke="#7C7C7C" stroke-width="1.5">
            <path d="M2.65815789,8.05936416 L1.82205263,1.07220626 C1.78922389,0.799019565 1.87545681,0.52490747 2.05877752,0.319719225 C2.24209822,0.114530979 2.50480225,-0.0019170719 2.77994737,2.38824051e-05 L10.2268947,2.38824051e-05 C10.5020399,-0.0019170719 10.7647439,0.114530979 10.9480646,0.319719225 C11.1313853,0.52490747 11.2176182,0.799019565 11.1847895,1.07220626 L10.3452632,8.05936416 L2.65815789,8.05936416 Z M3.06868421,17.370101 L3.80557895,15.1299957 L9.19305263,15.1299957 L9.92857895,17.3721536 C9.9613735,17.4723516 9.9427453,17.5822718 9.87876888,17.66607 C9.81479246,17.7498681 9.71366686,17.796805 9.60836842,17.7915747 L3.37247368,17.7915747 C3.26992096,17.7915811 3.1735696,17.7424674 3.11332347,17.6594766 C3.05307733,17.5764859 3.03622619,17.46966 3.068,17.3721536 L3.06868421,17.370101 Z M9.19305263,15.1197326 C10.9870526,14.5593642 12.3000526,12.5751536 12.3000526,10.1749431 L0.704052632,10.1749431 C0.704052632,12.5628378 2.02389474,14.5470484 3.81105263,15.1074168 L9.19305263,15.1197326 Z" id="Path_126"></path>
            <rect id="Rectangle_81" x="0" y="8.05936416" width="13" height="2.12857895" rx="1.06428947"></rect>
        </g>
    </g>
</svg>