<?xml version="1.0" encoding="UTF-8"?>
<svg width="20px" height="19px" viewBox="0 0 20 19" version="1.1" xmlns="http://www.w3.org/2000/svg" xmlns:xlink="http://www.w3.org/1999/xlink">
    <title>bedroom</title>
    <g id="Page-1" stroke="none" stroke-width="1" fill="none" fill-rule="evenodd">
        <g id="bedroom" fill="#7C7C7C" fill-rule="nonzero">
            <path d="M19.2857143,9.5 L15.7142857,9.5 L15.7142857,6.57692308 C15.7142857,6.17333038 15.3944891,5.84615385 15,5.84615385 L5,5.84615385 C4.60551089,5.84615385 4.28571429,6.17333038 4.28571429,6.57692308 L4.28571429,9.5 L0.714285714,9.5 C0.319796607,9.5 0,9.82717653 0,10.2307692 L0,16.0769231 C0,16.4805158 0.319796607,16.8076923 0.714285714,16.8076923 L1.42857143,16.8076923 L1.42857143,18.2692308 C1.42857143,18.6728235 1.74836804,19 2.14285714,19 C2.53734625,19 2.85714286,18.6728235 2.85714286,18.2692308 L2.85714286,16.8076923 L17.1428571,16.8076923 L17.1428571,18.2692308 C17.1428571,18.6728235 17.4626538,19 17.8571429,19 C18.251632,19 18.5714286,18.6728235 18.5714286,18.2692308 L18.5714286,16.8076923 L19.2857143,16.8076923 C19.6802034,16.8076923 20,16.4805158 20,16.0769231 L20,10.2307692 C20,9.82717653 19.6802034,9.5 19.2857143,9.5 Z M14.2857143,9.5 L10.7142857,9.5 L10.7142857,7.30769231 L14.2857143,7.30769231 L14.2857143,9.5 Z M5.71428571,7.30769231 L9.28571429,7.30769231 L9.28571429,9.5 L5.71428571,9.5 L5.71428571,7.30769231 Z M18.5714286,15.3461538 L1.42857143,15.3461538 L1.42857143,10.9615385 L18.5714286,10.9615385 L18.5714286,15.3461538 Z" id="Path_124"></path>
            <path d="M2.14285714,8.76923077 C2.53734625,8.76923077 2.85714286,8.44205424 2.85714286,8.03846154 L2.85714286,1.46153846 L17.1428571,1.46153846 L17.1428571,8.03846154 C17.1428571,8.44205424 17.4626538,8.76923077 17.8571429,8.76923077 C18.251632,8.76923077 18.5714286,8.44205424 18.5714286,8.03846154 L18.5714286,0.730769231 C18.5714286,0.327176529 18.251632,0 17.8571429,0 L2.14285714,0 C1.74836804,0 1.42857143,0.327176529 1.42857143,0.730769231 L1.42857143,8.03846154 C1.42857143,8.44205424 1.74836804,8.76923077 2.14285714,8.76923077 Z" id="Path_125"></path>
        </g>
    </g>
</svg>