<?xml version="1.0" encoding="UTF-8"?>
<svg width="26px" height="33px" viewBox="0 0 26 33" version="1.1" xmlns="http://www.w3.org/2000/svg" xmlns:xlink="http://www.w3.org/1999/xlink">
    <!-- Generator: Sketch 63.1 (92452) - https://sketch.com -->
    <title>location_residential</title>
    <desc>Created with Sketch.</desc>
    <g id="Sale" stroke="none" stroke-width="1" fill="none" fill-rule="evenodd">
        <g id="location_residential" transform="translate(0.278524, 0.083331)">
            <path d="M24,12.5 C24,18.146875 19.936875,23.616875 16.64125,27.125 C14.391875,29.519375 12.5,31 12.5,31 C12.5,31 1,22 1,12.5 C1,8.815 2.733125,5.534375 5.429375,3.429375 C7.379375,1.9075 9.83375,1 12.5,1 C18.85125,1 24,6.14875 24,12.5 Z" id="Path" fill="#FECDBF" fill-rule="nonzero"></path>
            <circle id="Oval" stroke="#2F3842" stroke-width="1.8" fill="#FFFFFF" cx="12.5" cy="12.5" r="5.5"></circle>
            <path d="M14.594375,29.16875 C13.353125,30.3325 12.5,31 12.5,31 C12.5,31 1,22 1,12.5 C1,8.815 2.733125,5.534375 5.429375,3.429375 C6.179375,2.844375 7.00375,2.35 7.886875,1.963125 C5.215,4.069375 3.5,7.334375 3.5,11 C3.5,19.42875 12.553125,27.464375 14.594375,29.16875 Z" id="Path" fill="#FFB49E" fill-rule="nonzero"></path>
            <path d="M12.5,0 C5.6075,0 0,5.6075 0,12.5 C0,17.4194375 2.842375,22.199125 5.9829375,25.9540625 C8.8921875,29.4325 11.7629375,31.693 11.88375,31.7875 C12.24575,32.0708125 12.754375,32.0708125 13.116375,31.7875 C13.2371875,31.693 16.1079375,29.4325 19.0171875,25.9540625 C22.158375,22.19825 25,17.41875 25,12.5 C25,5.6075 19.3925,0 12.5,0 Z M12.5,29.70175 C7.6805625,25.5886875 2,18.8160625 2,12.5 C2,6.71025 6.71025,2 12.5,2 C18.28975,2 23,6.71025 23,12.5 C23,18.8165625 17.3173125,25.5905625 12.5,29.70175 Z" id="Shape" fill="#2F3842" fill-rule="nonzero"></path>
        </g>
    </g>
</svg>