<svg id="apple_logo" xmlns="http://www.w3.org/2000/svg" width="59" height="59" viewBox="0 0 59 59">
  <g id="Group_551" data-name="Group 551">
    <g id="Group_533" data-name="Group 533" transform="translate(0 0)">
      <rect id="Rectangle_80" data-name="Rectangle 80" width="59" height="59" rx="20" transform="translate(0 0)" fill="#fff"/>
    </g>
  </g>
  <path id="Path_140" data-name="Path 140" d="M26.447,8.5A8.927,8.927,0,0,0,28.607,2a9.049,9.049,0,0,0-6.114,3.1,8.5,8.5,0,0,0-2.038,6.3A7.521,7.521,0,0,0,26.447,8.5Zm5.136,15.164a9.192,9.192,0,0,1,4.4-7.765,9.5,9.5,0,0,0-7.46-4.076c-3.18-.326-6.114,1.855-7.806,1.855s-4.076-1.814-6.726-1.773a10.028,10.028,0,0,0-8.438,5.157c-3.587,6.237-.917,15.51,2.67,20.545,1.631,2.466,3.669,5.258,6.359,5.157s3.567-1.671,6.685-1.671S25.346,42.763,28,42.7s4.525-2.527,6.237-4.993A22.42,22.42,0,0,0,37.045,31.9a8.988,8.988,0,0,1-5.462-8.234Z" transform="translate(8.449 6.596)"/>
</svg>
